<?xml version="1.0" encoding="utf-8"?>
<!-- Generator: Adobe Illustrator 25.2.0, SVG Export Plug-In . SVG Version: 6.00 Build 0)  -->
<svg version="1.1" xmlns="http://www.w3.org/2000/svg" xmlns:xlink="http://www.w3.org/1999/xlink" x="0px" y="0px"
	 viewBox="0000 1000 3000 1000" style="enable-background:new 0 0 3000 3000;" xml:space="preserve">
<style type="text/css">
	.st0{display:none;}
	.st1{display:inline;fill:#0C0C0C;}
	.st2{display:none;fill:#FFFFFF;}
	.st3{fill:#FFF;}
	.st4{fill:#CE5B36;}
</style>
<g id="Layer_2" class="st0">
	<rect x="3194.87" y="34.37" class="st1" width="2964.88" height="1127.75"/>
</g>
<g id="Layer_3">
	<rect x="0" y="0" class="st2" width="3000" height="3000"/>
	<g id="Layer_4">
	</g>
	<rect x="-82.17" y="-82.17" class="st3" width="3164.34" height="3164.34"/>
	<g>
		<g>
			<path class="st4" d="M1268.06,1474.22l-2.59-0.74c-4.93-5.91-10.84-9.98-17.74-12.19c-4.43-1.48-11.27-2.41-20.51-2.77
				c-9.23-0.37-19.09-0.43-29.56-0.19c-10.47,0.25-20.63,0.62-30.48,1.11c-9.86,0.5-17.73,0.74-23.64,0.74
				c-0.25,39.66-0.5,79.19-0.74,118.6c-0.25,39.41-0.13,78.95,0.37,118.6c0.24,6.9,2.59,12.82,7.02,17.74
				c4.43,4.93,10.22,7.27,17.36,7.02l3.33,1.85l-1.85,3.7l-1.48,1.11c-14.29,0-28.57,0-42.86,0c-14.29,0-28.58,0.12-42.86,0.37
				l-3.33-1.85l0.37-3.7l2.96-1.11c3.44,0.25,6.65-0.31,9.6-1.66c2.96-1.35,5.6-3.2,7.94-5.54c2.34-2.34,4.19-5.05,5.54-8.13
				c1.35-3.08,2.03-6.34,2.03-9.8c1.23-39.65,1.66-79.26,1.29-118.78c-0.37-39.54-0.8-79.13-1.29-118.79
				c-12.81,0-25.19,0.32-37.13,0.92c-11.95,0.62-24.33,0.32-37.14-0.92c-1.23-0.24-2.22-0.31-2.96-0.19
				c-0.74,0.14-1.73,0.68-2.96,1.67c-1.97,1.23-3.33,2.84-4.06,4.8l0.37-0.37c-1.23,2.46-2.21,5.12-2.95,7.94
				c-0.74,2.84-1.61,5.49-2.59,7.95l-3.7,2.22c-0.99-0.5-1.91-0.93-2.77-1.3c-0.87-0.37-1.54-1.05-2.03-2.03
				c0.74-6.65,1.29-13.36,1.66-20.14c0.37-6.77,0.79-13.48,1.29-20.13c0.49-0.49,1.11-1.16,1.85-2.03c0.74-0.87,1.48-1.05,2.22-0.56
				c18.96,1.23,36.95,1.85,53.94,1.85s35.1,0,54.31,0c2.71,0,7.51-0.05,14.41-0.18c6.89-0.13,14.78-0.31,23.64-0.56
				c8.87-0.24,18.16-0.42,27.9-0.55c9.73-0.13,18.78-0.24,27.16-0.37c8.37-0.13,15.39-0.19,21.06-0.19c5.66,0,8.99,0.13,9.98,0.37
				c3.94,5.17,7.88,10.29,11.82,15.34c3.94,5.05,8,10.04,12.19,14.96l-0.37,3.7L1268.06,1474.22z"/>
			<path class="st4" d="M1616.48,1728.42c-19.71-1.23-39.17-1.96-58.38-2.22c-4.43,0-8.99,0.06-13.67,0.19s-9.24-0.06-13.67-0.56
				c-0.98-0.24-1.72-0.98-2.22-2.22c-0.5-1.23-0.87-2.09-1.11-2.59l2.96-1.85c7.15,0.25,12.81-2.15,17-7.2
				c4.19-5.05,6.28-10.91,6.28-17.56c0-17.24-0.31-34.48-0.92-51.72c-0.62-17.24-0.93-34.49-0.93-51.73
				c-26.36,0.25-52.6,0.32-78.7,0.19c-26.12-0.13-52.34-0.19-78.71-0.19c0,17.24-0.37,34.49-1.11,51.73
				c-0.74,17.24-0.98,34.48-0.74,51.72c0,6.41,2.15,12.19,6.47,17.37c4.31,5.17,9.91,7.64,16.81,7.39l2.96,1.11l0.37,3.7l-3.33,1.85
				c-14.28,0.25-28.58,0.56-42.85,0.93c-14.29,0.37-28.58,0.92-42.86,1.66c-0.99-0.24-1.67-0.92-2.04-2.03s-0.68-2.04-0.92-2.78
				l3.33-1.85c6.89-0.49,12.74-3.26,17.55-8.31c4.8-5.05,7.45-11.02,7.95-17.93c1.23-18.48,1.96-37.01,2.22-55.61
				c0.24-18.59,0.37-37.13,0.37-55.61c0.24-19.7,0.24-39.47,0-59.3c-0.25-19.83-1.11-39.59-2.59-59.3
				c-0.5-7.88-3.08-13.79-7.76-17.74c-4.69-3.94-10.6-6.65-17.74-8.13c-0.99-0.24-1.79-1.05-2.41-2.4
				c-0.61-1.35-1.05-2.28-1.29-2.78l3.33-1.48c9.85,0.5,19.58,0.87,29.19,1.11c9.61,0.25,19.33,0.62,29.18,1.11
				c4.43,0,8.99-0.05,13.67-0.18c4.68-0.13,9.24,0.06,13.67,0.55c0.98,0.25,1.72,0.99,2.22,2.22c0.5,1.23,0.87,2.1,1.11,2.59
				l-3.33,1.85c-6.89-0.24-12.5,2.22-16.81,7.39c-4.32,5.17-6.47,10.97-6.47,17.37c0,17.24,0.31,34.49,0.93,51.73
				c0.61,17.24,0.92,34.48,0.92,51.72c26.36,0,52.59,0,78.71,0c26.1,0,52.34-0.12,78.7-0.37c0-17.24,0.31-34.48,0.93-51.72
				c0.61-17.24,0.92-34.49,0.92-51.73c0-3.2-0.61-6.28-1.85-9.24c-1.23-2.96-2.83-5.6-4.8-7.94c-1.97-2.34-4.43-4.19-7.39-5.54
				c-2.96-1.35-6.04-1.91-9.24-1.67l-2.96-1.11l-0.37-3.7l3.33-1.85c9.85-0.24,19.65-0.42,29.38-0.55
				c9.72-0.13,19.51-0.43,29.37-0.93c4.43-0.24,8.92-0.55,13.48-0.92s9.17-0.56,13.86-0.56c0.49,0,1.48,1.48,2.96,4.43l-3.33,2.22
				c-7.15,0.5-13.12,3.21-17.93,8.13c-4.8,4.93-7.45,10.97-7.94,18.11c-1.23,18.48-1.91,37.01-2.04,55.61
				c-0.13,18.6-0.31,37.13-0.55,55.61c0,19.71,0.05,39.47,0.18,59.3c0.13,19.84,0.93,39.6,2.41,59.3c0.49,6.65,2.09,11.58,4.8,14.78
				c2.7,3.21,5.66,5.61,8.87,7.21c3.2,1.6,6.28,2.89,9.24,3.88c2.96,0.99,5.05,2.59,6.28,4.8L1616.48,1728.42z"/>
			<path class="st4" d="M1952.7,1729.71c-9.36-1.84-17.49-4.24-24.39-7.2c-2.96-1.23-6.16-3.07-9.61-5.54
				c-3.45-2.46-6.83-5.11-10.16-7.94c-3.33-2.83-6.53-5.79-9.61-8.87c-3.08-3.08-5.73-5.73-7.95-7.95
				c-19.21-19.45-38.3-38.85-57.26-58.19c-18.97-19.33-38.06-38.61-57.27-57.82l0.37-3.7c0.5-0.24,1.11-0.49,1.85-0.74
				c0.74-0.24,1.35-0.37,1.85-0.37c9.35-0.98,17.79-2.52,25.31-4.61c7.52-2.09,14.97-6.34,22.36-12.75
				c5.91-5.17,10.4-11.27,13.48-18.29s4.8-14.22,5.17-21.61c0.37-7.39-0.74-14.72-3.33-21.99c-2.59-7.26-6.59-13.73-12-19.39
				c-4.93-5.17-10.41-8.92-16.45-11.27c-6.04-2.33-12.37-3.93-19.03-4.79s-13.37-1.17-20.13-0.93c-6.78,0.25-13.49,0.37-20.14,0.37
				c0.74,27.1,1.3,54.07,1.67,80.91c0.37,26.86,0.42,53.83,0.18,80.92c-0.24,12.81-0.55,25.62-0.92,38.43s-0.56,25.61-0.56,38.42
				c0,6.41,2.22,12.19,6.65,17.37c4.43,5.17,10.1,7.64,17,7.39l2.59,1.11l0.74,3.33l-3.7,1.85c-14.28,0.25-28.52,0.56-42.67,0.93
				c-14.17,0.37-28.39,0.92-42.67,1.66c-0.74-0.49-1.36-1.29-1.85-2.4c-0.5-1.11-0.87-1.91-1.11-2.41l3.7-1.85
				c7.14-0.49,12.93-3.26,17.37-8.31c4.43-5.05,6.89-11.02,7.39-17.93c1.23-19.7,1.9-39.4,2.03-59.11
				c0.12-19.71,0.19-39.41,0.19-59.12c0-18.48-0.07-36.95-0.19-55.42c-0.13-18.48-0.8-36.95-2.03-55.43
				c-0.5-6.89-3.09-12.99-7.76-18.29c-4.69-5.3-10.6-8.07-17.74-8.32c-0.99-0.49-2.04-0.92-3.15-1.29s-1.29-1.54-0.55-3.51
				c0.24-0.74,1.35-1.23,3.33-1.48c19.21,0.74,38.36,1.36,57.45,1.85c19.09,0.5,38.24,0.87,57.45,1.11c10.09,0,19.7,1.91,28.82,5.73
				c9.11,3.82,17.05,9.05,23.83,15.7c6.77,6.65,12.07,14.41,15.89,23.28c3.81,8.87,5.72,18.48,5.72,28.82
				c0,8.62-1.48,17.12-4.43,25.49c-2.96,8.38-7.26,15.89-12.93,22.54c-4.93,5.67-10.53,10.47-16.81,14.41
				c-6.28,3.95-13,6.9-20.13,8.87c13.3,15.28,24.99,28.63,35.09,40.09c10.1,11.45,19.21,21.49,27.34,30.12
				c8.13,8.62,15.58,16.25,22.36,22.9c6.77,6.65,13.54,12.93,20.31,18.84s13.92,11.77,21.43,17.56
				c7.52,5.79,16.08,12.13,25.69,19.03C1980.78,1729.9,1962.06,1731.56,1952.7,1729.71z"/>
			<path class="st4" d="M2286.72,1728.42c-9.36-0.49-18.79-0.86-28.27-1.11c-9.48-0.24-18.9-0.49-28.26-0.74
				c-3.94-0.24-7.89-0.31-11.82-0.18c-3.94,0.13-7.89-0.06-11.82-0.56c-0.98-0.24-1.72-0.98-2.22-2.22
				c-0.5-1.23-0.86-2.09-1.11-2.59l2.96-1.85c3.45-0.24,5.73-1.35,6.84-3.33c1.11-1.96,1.9-4.31,2.4-7.02
				c0-0.49-0.87-3.14-2.59-7.94s-3.94-10.72-6.65-17.74s-5.72-14.72-9.05-23.09c-3.33-8.37-6.47-16.32-9.43-23.84
				c-2.96-7.51-5.61-14.1-7.94-19.76c-2.34-5.67-3.88-9.48-4.61-11.45h-77.97c-0.98,2.46-2.65,6.52-4.98,12.19
				c-2.34,5.67-5.06,12.13-8.13,19.39c-3.08,7.27-6.28,14.91-9.61,22.91s-6.34,15.52-9.06,22.54c-2.71,7.02-4.93,13.06-6.65,18.11
				c-1.72,5.05-2.46,8.19-2.22,9.42c0.5,4.69,1.78,7.39,3.88,8.13c2.09,0.74,4.86,1.73,8.31,2.96v3.7l-3.33,1.85
				c-11.09,0.25-21.98,0.68-32.7,1.3c-10.72,0.61-21.49,0.92-32.33,0.92c-0.5,0-1.48-1.48-2.96-4.43l3.33-2.22
				c8.13-0.49,15.39-3.38,21.8-8.68c6.4-5.3,11.32-11.52,14.78-18.66v0.37c12.31-29.31,24.14-58.56,35.46-87.75
				c11.33-29.18,22.78-58.56,34.36-88.11l22.54-59.12c1.72-3.94,3.33-8.18,4.81-12.74c1.48-4.56,3.2-8.69,5.17-12.38
				c0.74-1.23,1.96-1.85,3.7-1.85c1.96,0,3.33,0.62,4.06,1.85l6.65,16.63l22.17,58.75c11.82,30.79,23.51,61.52,35.09,92.18
				c11.58,30.67,24.02,61.15,37.32,91.45c3.44,7.64,8.44,14.1,14.96,19.4s13.98,8.19,22.36,8.68l4.06,4.8L2286.72,1728.42z
				 M2136.33,1503.78c-5.43,13.55-10.6,27.1-15.52,40.64c-4.93,13.55-10.23,26.97-15.89,40.28c10.35,0.25,20.75,0.32,31.22,0.19
				c10.47-0.13,20.88-0.19,31.23-0.19L2136.33,1503.78z"/>
			<path class="st4" d="M2596.88,1728.42c-20.21-0.98-40.4-1.72-60.6-2.22c-4.68,0-9.48,0.06-14.41,0.19
				c-4.93,0.13-9.73-0.06-14.41-0.56c-0.98-0.24-1.72-0.98-2.22-2.22c-0.5-1.23-0.86-2.09-1.11-2.59l2.96-1.85
				c2.71-0.24,4.8-1.23,6.28-2.96c1.48-1.72,2.22-3.94,2.22-6.65c0-0.74-0.18-1.72-0.55-2.96c-0.37-1.23-0.8-2.22-1.3-2.96
				c-3.2-5.42-6.71-10.72-10.53-15.89c-3.82-5.17-7.45-10.35-10.91-15.52c-7.38-11.09-14.77-22.1-22.16-33.07
				c-7.39-10.96-14.78-21.98-22.17-33.07c-7.89,11.09-15.83,22.11-23.84,33.07c-8,10.97-16.07,21.98-24.2,33.07
				c-3.7,4.93-7.63,9.98-11.82,15.15c-4.19,5.17-8,10.47-11.45,15.89c-0.5,0.5-0.92,1.48-1.29,2.96c-0.37,1.48-0.56,2.59-0.56,3.33
				c0.24,4.19,1.35,6.84,3.33,7.95c1.97,1.11,4.68,2.03,8.13,2.77l0.37,3.7l-3.33,2.22c-12.32,0-24.45,0.19-36.39,0.56
				c-11.95,0.37-24.08,0.8-36.39,1.29c-0.99,0-1.67-0.55-2.04-1.66c-0.37-1.11-0.68-2.04-0.92-2.78l3.33-2.22
				c8.87,0,17-2.33,24.39-7.02c7.39-4.68,13.67-10.35,18.84-17c14.03-18.22,27.7-36.51,41.01-54.87
				c13.3-18.35,26.72-36.76,40.28-55.24c-13.55-20.94-27.15-41.63-40.83-62.07c-13.67-20.45-27.53-40.77-41.57-60.97
				c-3.21-4.43-6.34-8.07-9.43-10.9c-3.08-2.83-6.28-5.05-9.61-6.65c-3.33-1.6-7.02-2.89-11.09-3.88
				c-4.06-0.98-8.56-1.96-13.48-2.96c-0.99-0.24-1.79-1.05-2.41-2.4c-0.61-1.35-1.05-2.28-1.29-2.78l3.33-1.48
				c10.35,0.5,20.44,0.87,30.3,1.11c9.84,0.25,19.94,0.5,30.29,0.74c4.68,0.25,9.43,0.32,14.23,0.19c4.8-0.13,9.54,0.06,14.22,0.55
				c0.5,0,1.17,0.68,2.04,2.04c0.86,1.35,1.29,2.15,1.29,2.4l-3.33,2.22c-2.46,0-4.31,0.56-5.54,1.67
				c-1.23,1.11-2.09,2.52-2.59,4.24c-0.5,1.73-0.55,3.58-0.18,5.54c0.37,1.97,1.05,3.7,2.03,5.17c3.2,5.43,6.71,10.72,10.54,15.89
				c3.81,5.17,7.44,10.35,10.9,15.52c7.63,11.09,15.15,22.11,22.54,33.07s14.65,21.98,21.8,33.07
				c8.37-11.33,16.56-22.66,24.57-33.99c8-11.33,16.2-22.67,24.57-33.99c3.94-5.42,7.95-10.72,12.01-15.89
				c4.06-5.17,8.07-10.46,12-15.89c1.97-2.7,2.28-5.85,0.93-9.42c-1.36-3.57-3.88-5.36-7.58-5.36l-2.96-1.11l-0.37-3.7l3.33-1.85
				c12.07-0.49,24.21-1.11,36.39-1.85c12.19-0.74,24.21-0.98,36.03-0.74c0.49,0,1.48,1.48,2.96,4.43l-3.33,2.22
				c-17.25,0.74-31.17,7.89-41.75,21.43c-14.54,18.97-28.7,38-42.49,57.08c-13.8,19.09-27.7,38.24-41.75,57.45
				c13.54,20.69,27.15,41.2,40.83,61.52s27.52,40.58,41.57,60.78c5.66,8.13,12,13.86,19.03,17.19c7.02,3.33,15.21,5.61,24.58,6.83
				c0.74,0.25,1.48,0.93,2.22,2.04s1.23,1.91,1.48,2.4L2596.88,1728.42z"/>
		</g>
		<path class="st4" d="M731.97,1524.17c-0.06-7.75-2.84-13.23-8.51-16.32c-5.23-2.96-10.9-4.98-16.57-6.74
			c-7.55-2.45-16.19-6.31-22.61-11.03l0.01,0.01c0,0-29.69,13.32-69.33,9.33l0.02,0h0c31.34-1.32,56.52-6.82,64.56-13.93
			c1.83-1.58,2.77-3.28,2.77-4.98v-19.22c0-10.59-36.68-19.22-81.93-19.22c-45.25,0-81.93,8.63-81.93,19.22v19.22
			c0,1.7,0.95,3.4,2.77,4.98c-7.81,7.88-17.27,12.35-27.35,15.63c-5.67,1.76-11.34,3.78-16.57,6.74c-5.67,3.09-8.45,8.57-8.51,16.32
			c-0.06,5.92-0.19,11.85-0.32,17.84v120.88c0,11.85,6.49,22.44,16.26,26.47c22.5,9.2,66.05,23.95,115.65,24.52
			c49.6-0.57,93.08-15.31,115.65-24.52c9.77-4.03,16.26-14.62,16.26-26.47V1542C732.16,1536.02,732.03,1530.09,731.97,1524.17z
			 M642.92,1471.36c-11.47,1.7-25.78,2.84-42.54,2.84c-27.16,0-47.9-3.02-60.75-6.55c4.79-1.26,10.34-2.39,16.45-3.34
			c12.79-1.89,27.98-3.03,44.31-3.03c24.14,0,45.75,2.46,60.75,6.37C656.22,1469.02,650.1,1470.28,642.92,1471.36z M600.38,1542.32
			c-38.19,0.95-76.38-5.55-114.58-19.47c38.19,9.2,76.38,13.49,114.58,12.79c38.19,0.69,76.38-3.59,114.58-12.79
			C676.76,1536.77,638.57,1543.26,600.38,1542.32z"/>
		<polygon class="st4" points="624.21,1467.73 640.84,1432.49 618.87,1432.49 610.08,1467.73 		"/>
		<path class="st4" d="M630.97,1328.06c0.77,8.88,1.47,17.01,2.23,25.72c1.59-10.78,2.19-21.01,4.69-30.76
			c11.15-43.59,31.22-82.72,60.67-116.81c4.87-5.64,11.04-10.16,16.67-15.13c1.05-0.92,2.38-1.52,4.33-2.73
			c-3.46,10.47-6.7,20.11-5.66,30.65c0.57-1.02,1.12-2.05,1.7-3.06c23.43-40.5,56.01-70.82,99.62-88.52
			c23.27-9.45,70.38-27.65,95.37-25.18c0.08,0.36,0.24,0.71,0.15,0.8c-10.67,10.78-38.82,39.76-45.52,52.93
			c-7.76,15.26-15.4,30.64-24.12,45.35c-7.98,13.46-19.38,23.75-33.53,31.04c-14.25,7.34-28.13,15.4-42.16,23.16
			c-1.15,0.63-2.23,1.38-3.15,2.47c20.04-5.7,39.15-13.72,58.38-22.15c-0.07,0.58-0.01,0.96-0.15,1.21
			c-9.37,16.23-18.28,32.75-28.25,48.61c-14.74,23.46-36.46,38.05-62.51,46.58c-6.18,2.02-12.36,4.06-18.42,6.46
			c21.39-3.19,41.33-11.13,61.29-19.03c0.08,0.32,0.24,0.58,0.16,0.7c-15.73,25.89-34.31,49.16-60.24,65.71
			c-12.45,7.95-26.08,13.38-39.74,18.78c-10.53,4.16-20.84,8.77-30.06,15.72c37.18-99.41,94.19-185.12,174.45-255.19
			c-1.19,0.86-2.39,1.7-3.57,2.57c-43.23,31.78-79.09,70.57-109.01,114.95c-45.19,67.03-79.19,139.23-100.23,217.41
			c-0.36,1.35-1.01,2.93-2.04,3.76c-8.87,7.16-15.2,16.1-19.24,26.71c-0.12,0.3-0.38,0.55-1.33,1.86
			c-1.45-6.57-2.77-12.25-3.94-17.96c-1.52-7.4-0.03-14.27,3.19-21.1c9.67-20.53,18.59-41.42,28.66-61.74
			c5.84-11.79,7.32-23.53,5.7-36.42C612.56,1373.24,619.29,1345.49,630.97,1328.06z"/>
		<g>
			<path class="st4" d="M2646.4,1390.98h-13.95v-4.47h32.62v4.47h-13.95v37.03h-4.71V1390.98z"/>
			<path class="st4" d="M2679.51,1386.51h4.71l15.4,28.93l15.4-28.93h4.71v41.49h-4.71v-31.35l-15.4,28.93l-15.4-28.93v31.35h-4.71
				V1386.51z"/>
		</g>
		<g>
			<path class="st4" d="M624.65,1302.75l1.74-21.02c-1.76,6.35-3.31,13.27-4.49,20.81L624.65,1302.75z"/>
			<path class="st4" d="M784.95,1332.57l-23.58,31.05c7.98-8.08,16.7-18.09,24.93-29.98c-0.13-0.11-0.27-0.21-0.4-0.31
				L784.95,1332.57z"/>
			<path class="st4" d="M868.12,1576.76c-0.1-16.56-1.68-33.07-4.74-49.12l34.08-6.63c1.85,9.84,3.21,19.53,4.06,28.84l-8.49,0.75
				c-0.2-2.71-0.55-5.42-0.9-8.05l-0.07-0.55c-0.15-1.11-0.29-2.22-0.42-3.33c-0.27-2.14-0.53-4.28-0.87-6.41l-0.18-1.17
				l-17.39,2.72l0.23,1.7c0.7,5.17,1.43,10.52,1.96,15.76l0.94,12.28l0.14,5.33l42.6-1.56l1.19-0.04l-0.04-1.19
				c-0.81-22.23-3.93-44.39-9.27-65.85l-0.29-1.16l-50.8,12.68c-3.91-15.28-9.2-30.29-15.74-44.63l31.54-14.54
				c1.98,4.35,4.02,8.84,5.72,13.39l2.89,7.34c0.58,1.6,1.13,3.22,1.67,4.83l0.51,1.5l-8.08,2.74c-1.51-4.61-3.31-9.16-5.06-13.57
				l-1.9-4.82l-16.28,6.77l4.01,10.18c0.32,0.79,0.64,1.58,0.92,2.36l3.95,11.7c0.54,1.69,1.01,3.4,1.49,5.11l1.12,3.92l42.15-11.88
				l-0.32-1.14c-6.01-21.35-14.3-42.14-24.63-61.81l-0.55-1.05l-46.36,24.38c-7.7-14.49-16.78-28.37-27.05-41.26l27.05-21.75
				c0.61,0.77,1.22,1.55,1.83,2.32c2.36,2.98,4.8,6.07,6.98,9.27l4.59,6.46c0.99,1.36,1.89,2.78,2.78,4.2
				c0.29,0.46,0.58,0.91,0.87,1.37l-7.16,4.62c-2.29-3.64-4.81-7.16-7.26-10.58c-1.09-1.52-2.18-3.04-3.25-4.57l-0.7-1l-14.15,10.53
				l0.69,0.95c6.1,8.48,12.5,17.68,17.96,27.49l0.58,1.05l38-21.82l-0.59-1.03c-11.03-19.21-24.12-37.36-38.89-53.93l-0.79-0.89
				l-39.05,34.88c-10.58-11.73-22.25-22.57-34.71-32.26l21.2-27.5l1.28,1c3.34,2.61,6.79,5.31,10,8.2l5.96,5.17
				c1.28,1.13,2.51,2.32,3.75,3.51l1.12,1.07l-5.88,6.18c-3.36-3.26-6.93-6.35-10.4-9.34l-4.3-3.73l-11.28,13.55l10.19,8.83
				l8.94,8.53c1.24,1.23,2.44,2.51,3.64,3.78c0.68,0.72,1.36,1.44,2.05,2.15l0.82,0.85l31.78-30.13l-0.82-0.86
				c-12.1-12.76-25.31-24.51-39.32-35.13c-0.79,1.31-1.59,2.62-2.4,3.9c12.76,9.69,24.85,20.32,35.99,31.81l-25.01,24.06
				c-2.57-2.74-5.31-5.34-7.97-7.87l-1.6-1.52c-2.37-2.37-4.95-4.58-7.44-6.72c-0.88-0.75-1.75-1.5-2.62-2.26l5.52-6.54l6.42,5.56
				c1.56,1.41,3.07,2.86,4.59,4.31c0.82,0.79,1.64,1.57,2.46,2.35l0.86,0.81l12.24-12.68l-7.49-7.13l-6.84-5.94
				c-3.32-2.99-6.87-5.77-10.32-8.46c-1.15-0.9-2.31-1.8-3.46-2.71c-8.24,11.89-16.95,21.9-24.93,29.98l-2.93,3.85l0.94,0.72
				c13.49,10.25,26.06,21.85,37.34,34.49l2.06,2.39l39.31-34.6c12.85,14.71,24.37,30.67,34.27,47.48l-29.98,17.52
				c-4.16-7.14-9-14.51-14.74-22.47l6.89-5.05l4.93,6.94c1.2,1.7,2.32,3.45,3.43,5.21c0.62,0.97,1.23,1.94,1.86,2.9l0.64,0.98
				l14.87-9.45l-5.61-8.69l-5.25-7.39c-2.35-3.45-4.97-6.75-7.51-9.95c-1.2-1.51-2.4-3.02-3.57-4.55l-0.75-0.97l-33.96,27.72
				l0.75,0.92c11.13,13.67,20.92,28.47,29.08,44.01l1.43,2.79l46.52-24.03c8.91,17.41,16.2,35.71,21.71,54.44l-33.33,9.66
				c-0.98-3.56-2.18-7.06-3.34-10.47l-0.77-2.28c-1.03-3.33-2.34-6.59-3.6-9.75c-0.38-0.96-0.76-1.91-1.13-2.87l7.92-3.23l3.11,7.89
				c0.7,1.94,1.36,3.91,2.02,5.87l1.5,4.42l16.73-5.54l-3.32-9.8l-3.31-8.45c-1.67-4.49-3.67-8.9-5.61-13.16l-2.13-4.71
				l-39.66,18.64l0.51,1.08c7.21,15.34,12.94,31.43,17.04,47.81l0.7,3.08l50.9-12.31c4.5,18.93,7.27,38.43,8.21,58l-34.69,1.53
				c-0.12-2.72-0.34-5.45-0.56-8.09c-0.14-1.77-0.29-3.52-0.4-5.32c-0.29-3.08-0.69-6.14-1.09-9.21c-0.18-1.38-0.36-2.76-0.53-4.14
				l8.45-1.26c0.18,1.48,0.38,2.96,0.57,4.44c0.58,4.45,1.19,9.05,1.43,13.59l0.07,1.22l17.59-1.43l-0.09-1.18
				c-0.74-10.46-2.28-21.61-5.02-36.13l-0.22-1.19l-42.95,8.69l0.24,1.17c3.47,17.14,5.24,34.81,5.25,52.48l-0.09,3.17l52.38,0.38
				c-0.19,19.75-2.21,39.34-5.99,58.26l-34.07-6.89c0.24-1.39,0.5-2.8,0.75-4.19c0.55-3.01,1.09-6.02,1.56-9.09
				c0.21-1.77,0.44-3.53,0.67-5.3c0.35-2.66,0.7-5.33,0.97-8.01l8.53,0.81c-0.15,1.68-0.38,3.35-0.6,5.02
				c-0.15,1.15-0.31,2.29-0.43,3.41c-0.12,0.9-0.23,1.8-0.34,2.7c-0.28,2.26-0.57,4.6-1.02,6.85l-0.24,1.21l17.4,2.86l0.22-1.13
				c0.5-2.47,0.81-5,1.12-7.44l1.36-10.71l0.35-4.31c0.37-4.54,0.76-9.23,0.96-13.85l0.05-1.19l-43.76-1.92l-0.05,1.19
				c-0.76,17.01-3.16,33.93-7.13,50.34l-0.7,3.02l50.77,12.68c-4.81,18.92-11.42,37.49-19.67,55.21l-31.43-14.78
				c4.07-8.85,7.39-17,10.13-24.88l8.08,2.81l-1.17,3.43l-5.8,14.64l16.2,6.89l0.46-1.11c0.77-1.87,1.51-3.75,2.25-5.63l1.12-2.85
				c0.32-0.84,0.65-1.67,0.98-2.5c0.78-1.97,1.6-4,2.25-6.06c0.49-1.47,0.99-2.94,1.49-4.41c1.44-4.21,2.93-8.57,4.08-12.98
				l0.29-1.12l-40.9-11.86l-1.15-0.33l-0.33,1.14c-4.87,16.81-11.48,33.22-19.63,48.77l-0.11,0.21l-0.51,0.95l0.02,0.01l-0.88,1.73
				l46.13,24.7c-9.27,17.16-20.2,33.55-32.5,48.74l-26.92-21.98c0.84-1.08,1.7-2.16,2.55-3.24c1.91-2.39,3.87-4.86,5.67-7.42
				l6.37-8.95l1.31-2.05l7.16,4.69c-1.46,2.29-3.06,4.52-4.61,6.68l-0.21,0.3c-0.69,0.94-1.36,1.89-2.02,2.83
				c-1.19,1.69-2.37,3.38-3.65,5l-0.75,0.95l14.05,10.63l0.72-0.91c1.24-1.56,2.39-3.2,3.54-4.83c0.6-0.85,1.21-1.71,1.84-2.59
				c0.6-0.88,1.22-1.74,1.85-2.59c1.16-1.61,2.32-3.22,3.38-4.9c1-1.6,2.02-3.17,3.04-4.74c2.25-3.47,4.57-7.06,6.6-10.76l0.55-1.01
				l-37.79-22.09l-0.6,1.03c-8.54,14.6-18.55,28.47-29.76,41.21l-2.04,2.36l39.03,34.86c-13.05,14.51-27.51,27.87-43.01,39.74
				l-21.01-27.67c7.78-6.03,14.51-11.72,20.52-17.35l5.85,6.24l-2.63,2.49l-3.67,3.18c-0.86,0.74-1.71,1.48-2.56,2.22
				c-1.58,1.38-3.17,2.77-4.8,4.09l-0.93,0.75l11.17,13.64l0.92-0.75c1.54-1.25,3.04-2.56,4.54-3.87c0.79-0.69,1.59-1.39,2.41-2.08
				c0.73-0.64,1.47-1.28,2.21-1.91c1.55-1.32,3.15-2.69,4.62-4.15c1.09-1.05,2.19-2.09,3.28-3.14c3.26-3.08,6.63-6.28,9.72-9.67
				l0.78-0.86l-31.54-30.34l-0.82,0.86c-12.1,12.58-25.51,24-39.85,33.97l-0.56,0.4l-0.75,0.52l0.01,0.01l-1.58,1.13l29.45,43.25
				c-16.2,10.94-33.48,20.4-51.4,28.14l-13.66-31.97c1.26-0.57,2.52-1.14,3.78-1.7c2.78-1.24,5.65-2.53,8.44-3.92l6.47-3.32
				c1.94-0.98,3.71-1.88,5.43-2.87l4.16,7.47c-1.7,0.97-3.47,1.87-5.2,2.75l-2.3,1.18c-1.04,0.52-2.07,1.05-3.1,1.6
				c-1.8,0.94-3.66,1.91-5.54,2.72l-1.13,0.49l7.53,15.93l1.05-0.45c1.9-0.81,3.74-1.77,5.53-2.7c0.89-0.46,1.78-0.93,2.7-1.39
				l2.65-1.36c1.83-0.92,3.66-1.85,5.46-2.86l11.87-6.82l4.83-3.08l-23.28-37.1l-1.01,0.64c-14.36,9.02-29.65,16.65-45.45,22.71
				l-2.9,1.14l18.38,49.01c-18.3,6.78-37.33,11.87-56.62,15.13l-5.68-34.26c9.42-1.62,18.03-3.52,26.23-5.78l2.27,8.25l-3.48,0.98
				l-15.35,3.55l3.54,17.28l1.19-0.29c1.96-0.46,3.93-0.91,5.9-1.36c3.89-0.88,7.91-1.78,11.84-2.88c1.38-0.4,2.76-0.79,4.14-1.18
				c4.4-1.24,8.95-2.52,13.35-4.11l1.09-0.39l-13.83-41.53l-1.13,0.37c-16.66,5.55-33.97,9.43-51.44,11.52l-1.18,0.15l0,0.01
				l-1.92,0.25l5.86,52c-19.34,2.08-39.03,2.39-58.51,0.95l2.73-34.62l6.11,0.46c1.56,0.09,3.13,0.12,4.7,0.15l9.94,0.26
				c1.63-0.01,3.26-0.05,4.89-0.1l1.23-0.03l0.21,8.57c-4.9,0.15-9.84,0.03-14.65-0.09l-4.72-0.12l-0.74,17.62l1.22,0.02
				c1.91,0.02,3.81,0.09,5.72,0.14c4.1,0.14,8.35,0.26,12.5,0.06l9.08-0.23c1.98-0.05,3.95-0.21,5.93-0.37
				c1.06-0.09,2.12-0.17,3.19-0.24l1.2-0.08l-3.3-43.69l-1.19,0.09c-17.01,1.26-34.12,0.92-50.85-1.01l-3.12-0.4l-6.44,51.96
				c-19.41-2.48-38.64-6.78-57.18-12.8l10.85-32.99c8.04,2.65,16.54,4.96,25.92,7.06l-1.8,8.34l-8.3-1.91
				c-2.01-0.46-3.99-1.04-5.97-1.62c-1.12-0.33-2.24-0.65-3.36-0.95l-1.13-0.31l-4.88,16.93l9.96,2.8l8.84,2.04
				c4.24,1.08,8.61,1.84,12.83,2.57c1.7,0.3,3.4,0.6,5.09,0.91l1.2,0.22l7.01-43.27l-1.17-0.19c-17.37-2.81-34.5-7.4-50.91-13.64
				l-0.19-0.07l-2.72-1.08l-18.93,48.81c-18.14-7.11-35.73-15.98-52.31-26.39l18.57-29.34c7.02,4.46,14.71,8.78,23.42,13.18
				l-3.79,7.65l-7.57-3.87c-1.8-0.94-3.56-1.98-5.33-3c-1.03-0.6-2.06-1.19-3.1-1.78l-1.02-0.57l-8.86,15.22l8.98,5.15l8.07,4.14
				c3.9,2.1,7.99,3.93,11.94,5.69c1.53,0.69,3.06,1.37,4.59,2.08l1.1,0.5l17.38-40.24l-1.09-0.47
				c-15.51-6.69-30.48-14.96-44.46-24.55l-2.56-1.83l-2.33,3.34h0l-27.62,39.62c-15.96-11.21-30.95-23.97-44.59-37.95l24.93-24.16
				c5.71,5.89,12.16,11.91,19.67,18.32l-5.49,6.55l-6.45-5.58c-1.57-1.33-3.09-2.8-4.56-4.22c-0.83-0.8-1.66-1.6-2.5-2.39
				l-0.86-0.79l-12.18,12.72l3.11,2.95c1.45,1.39,2.9,2.78,4.41,4.14l10.35,8.97l11.67,9.18l26.38-35l-0.95-0.72
				c-14.04-10.6-27.07-22.65-38.75-35.84l-0.02-0.03l-2.02-2.34l-39.43,34.44c-12.8-14.77-24.27-30.77-34.1-47.6l30.05-17.4
				c0.24,0.41,0.48,0.83,0.71,1.25c0.77,1.37,1.55,2.74,2.41,4.04l3.92,6.11c1.85,3.04,3.94,5.96,5.96,8.78
				c0.55,0.77,1.11,1.55,1.66,2.33l-6.92,5.03l-4.91-6.89l-5.9-9.17l-14.91,9.4l5.58,8.68c1.12,1.66,2.28,3.28,3.45,4.91l1.79,2.53
				c2.69,3.94,5.69,7.74,8.59,11.41l3.2,4.08l33.12-26.85l0.93-0.74l-0.75-0.93c-10.68-13.19-20.12-27.45-28.04-42.38l-1.43-2.79
				l-46.44,24.2c-8.97-17.37-16.34-35.65-21.91-54.35l33.31-9.79c2.36,8.02,5.28,16.34,8.9,25.34l-7.9,3.25l-3.13-7.93
				c-0.76-1.91-1.41-3.86-2.05-5.8c-0.37-1.12-0.74-2.22-1.13-3.33l-0.39-1.11l-16.7,5.6l1.43,4.21c0.62,1.85,1.25,3.71,1.93,5.58
				l3.33,8.44c1.46,3.94,3.23,7.81,4.94,11.54c0.79,1.73,1.59,3.45,2.35,5.2l0.49,1.12l39.61-18.79l-0.51-1.08
				c-7.53-15.88-13.46-32.58-17.65-49.65l-0.7-3.06l-50.94,12.11c-4.43-18.95-7.12-38.46-7.99-58.02l34.67-1.39
				c0.05,2.07,0.22,4.13,0.39,6.13l0.55,7.26c0.22,3.12,0.64,6.26,1.05,9.29c0.18,1.36,0.36,2.73,0.53,4.08l-8.47,1.23l-0.3-2.37
				c-0.66-5.14-1.35-10.44-1.63-15.68l-0.07-1.22l-17.62,1.36l0.1,1.2c0.09,1.05,0.17,2.11,0.24,3.16c0.14,1.98,0.28,3.97,0.54,5.93
				l1.73,13.59l2.61,14.62l42.98-8.53l-0.23-1.17c-3.35-16.86-5.05-33.89-5.05-50.66c-0.03-0.61-0.03-1.22,0-1.84l0.06-1.24
				l-52.41-0.19c0.1-19.3,2.06-38.89,5.83-58.27l34.09,6.77c-0.23,1.34-0.48,2.67-0.72,4c-0.56,3.02-1.13,6.14-1.54,9.28
				c-0.2,1.74-0.43,3.48-0.66,5.22c-0.36,2.64-0.72,5.37-0.95,8.09l-8.53-0.79c0.14-1.78,0.38-3.57,0.61-5.32
				c0.14-1.04,0.27-2.08,0.39-3.09c0.17-1.16,0.31-2.32,0.45-3.49c0.24-2.01,0.49-4.09,0.88-6.09l0.23-1.2l-17.45-2.79l-0.19,1.17
				c-0.77,4.76-1.35,9.62-1.92,14.32l-0.46,3.81l-0.83,10.9c-0.19,2.39-0.38,4.86-0.39,7.32l-0.01,1.15l42.54,1.7l1.19,0.05
				l0.05-1.19c0.71-17.57,3.18-35.07,7.33-52.03l0.07-0.3l0.26-1.06l-0.02,0l0.43-1.89l-50.71-12.86
				c4.87-18.9,11.56-37.44,19.87-55.14l31.4,14.9c-0.56,1.25-1.13,2.5-1.7,3.75c-1.28,2.78-2.6,5.65-3.73,8.56l-4.03,10.22
				l-0.78,2.31l-8.08-2.84c0.76-2.26,1.65-4.5,2.51-6.68l0.49-1.25c0.45-1.08,0.87-2.18,1.29-3.27c0.74-1.91,1.49-3.83,2.33-5.7
				l0.5-1.1l-16.19-6.96l-0.48,1.06c-0.84,1.82-1.56,3.69-2.29,5.56c-0.38,0.98-0.76,1.95-1.16,2.94c-0.38,0.98-0.77,1.96-1.16,2.94
				c-0.74,1.85-1.48,3.7-2.12,5.59l-4.38,12.98l-1.57,5.51l42.02,12.35l0.34-1.14c4.77-16.22,11.16-32.07,19-47.11l1.41-2.78
				l-46.23-24.53c9.21-17.2,20.08-33.63,32.32-48.85l26.99,21.87c-6.14,7.71-11.32,14.84-15.81,21.73l-7.17-4.67l1.95-3.05
				l9.14-12.82l-14.09-10.57l-0.71,0.98c-8.71,11.93-14.9,21.33-20.07,30.46l-0.58,1.02l37.89,21.96l0.6-1.03
				c8.8-15.2,19.19-29.6,30.87-42.78l0.79-0.89l-0.01-0.01l1.26-1.47l-38.9-35c13.11-14.47,27.62-27.77,43.16-39.58l20.92,27.76
				c-1.1,0.87-2.2,1.73-3.3,2.59c-2.39,1.86-4.86,3.79-7.22,5.81l-5.5,4.76c-1.83,1.55-3.28,2.85-4.59,4.09l-5.82-6.26
				c1.58-1.51,3.25-2.95,4.88-4.35l1.47-1.27c0.88-0.74,1.74-1.5,2.61-2.26c1.53-1.35,3.12-2.75,4.76-4l0.97-0.74l-11.12-13.67
				l-0.91,0.69c-1.62,1.22-3.15,2.57-4.63,3.87c-0.78,0.69-1.56,1.37-2.37,2.06c-0.78,0.69-1.57,1.37-2.36,2.04
				c-1.52,1.31-3.04,2.61-4.5,3.99l-9.9,9.46l-3.96,4.14l31.45,30.48l0.83-0.85c11.8-12.18,24.83-23.26,38.74-32.96l2.53-1.81
				l-29.61-43.15c16.17-11.01,33.41-20.53,51.29-28.33l13.76,31.89c-8.95,3.97-16.85,7.89-24.07,11.94l-4.2-7.47
				c2.48-1.44,5.05-2.76,7.49-3.99c1.01-0.51,2.02-1.03,3.03-1.55c1.86-0.96,3.72-1.92,5.62-2.82l1.08-0.51l-7.58-15.91l-1.07,0.49
				c-1.8,0.84-3.57,1.75-5.33,2.66c-0.94,0.49-1.88,0.97-2.85,1.46c-0.94,0.5-1.89,0.98-2.83,1.45c-1.74,0.88-3.54,1.79-5.25,2.81
				c-1.5,0.88-3.02,1.74-4.53,2.6c-3.71,2.11-7.54,4.3-11.16,6.73l-0.96,0.64l23.41,36.99l1-0.64
				c14.88-9.42,30.74-17.36,47.15-23.59l1.11-0.42l-0.01-0.02l1.8-0.71l-18.21-49.06c18.33-6.72,37.38-11.73,56.68-14.92l5.55,34.29
				c-9.43,1.61-18.04,3.47-26.25,5.69l-2.25-8.28c2.58-0.74,5.22-1.34,7.79-1.92l0.44-0.1c1.15-0.26,2.3-0.53,3.45-0.79
				c2-0.47,4-0.94,6.01-1.33l1.18-0.23l-3.47-17.31l-1.18,0.26c-5.62,1.21-11.65,2.56-17.79,4.14l-13.17,3.76l-5.43,1.83
				l13.68,41.61l1.13-0.37c16.05-5.27,32.72-9.01,49.56-11.09l3.11-0.39l-6.06-51.99c19.3-2.16,38.98-2.56,58.51-1.16l-2.61,34.63
				l-6.14-0.45l-10.02-0.25c-1.53-0.04-3.06-0.09-4.62-0.09l-6.1,0.15l-0.24-8.54c0.75-0.02,1.5-0.04,2.25-0.07
				c2.08-0.07,4.15-0.13,6.22-0.08l10.89,0.28l0.68-17.62l-5.19-0.13c-4.66-0.13-9.49-0.25-14.24-0.04l-9.14,0.24l-10.26,0.75
				l3.45,43.67l1.19-0.09c13.68-1.07,27.42-1.06,41.02-0.05c0.13-1.51,0.26-3.03,0.42-4.5c-12.82-0.97-25.76-1.07-38.65-0.2
				l-2.49-34.64c0.53-0.04,1.06-0.08,1.58-0.13c1.68-0.14,3.37-0.27,5.07-0.31l7.92-0.2c4.81-0.22,9.75-0.08,14.53,0.05l-0.27,8.56
				l-8.67-0.19l-10.99,0.28l0.62,17.61l9.44-0.24c1.74-0.04,3.46,0,5.18,0.06c1.01,0.03,2.01,0.06,2.99,0.07l3,0.08
				c1.75,0.04,3.49,0.08,5.21,0.16l6.66,0.51c1.18-7.54,2.73-14.46,4.49-20.81l1.87-22.63l-1.19-0.1
				c-22.13-1.83-44.49-1.37-66.43,1.35l-1.18,0.15l6.44,51.95c-15.69,2.01-31.23,5.42-46.24,10.14l-10.61-33.09
				c2.89-0.94,5.86-1.77,8.74-2.57c1.77-0.49,3.53-0.98,5.26-1.49c3.33-0.89,6.68-1.65,10.04-2.41c1.38-0.31,2.76-0.63,4.14-0.95
				l1.74,8.37c-1.47,0.34-2.94,0.68-4.41,1.01c-4.46,1.01-9.08,2.06-13.55,3.44l-1.1,0.34l4.74,16.96l1.15-0.34
				c11.09-3.24,22.44-5.36,32.07-7.01l1.15-0.2l-6.68-43.27l-1.18,0.18c-21.94,3.4-43.59,9.13-64.34,17.02l-1.11,0.42l18.58,48.97
				c-15.31,5.88-30.18,13.21-44.19,21.86l-18.37-29.51c1.93-1.24,3.94-2.38,5.74-3.41l6.85-3.93c2.99-1.68,6.11-3.26,9.13-4.79
				c1.26-0.64,2.53-1.28,3.79-1.93l3.74,7.69c-1.17,0.6-2.33,1.19-3.5,1.79c-4.26,2.16-8.66,4.4-12.84,6.92l-1,0.6l8.75,15.29
				l1.04-0.61c9.72-5.72,19.87-10.42,29.39-14.65l1.07-0.48l-17.06-40.32l-1.1,0.46c-20.4,8.66-39.98,19.5-58.2,32.22l-0.98,0.68
				l29.94,42.95c-12.91,9.07-25.08,19.34-36.21,30.56l-24.77-24.36c2.13-2.18,4.38-4.3,6.56-6.36c1.32-1.25,2.65-2.5,3.92-3.74
				c2.59-2.36,5.25-4.65,7.91-6.94c1.02-0.88,2.04-1.76,3.06-2.65l5.45,6.6c-1.27,1.11-2.55,2.21-3.83,3.31
				c-3.34,2.87-6.8,5.83-9.99,9.01l-0.82,0.82l12.1,12.82l0.87-0.87c2.78-2.77,5.81-5.38,8.75-7.91c1.17-1.01,2.34-2.01,3.51-3.04
				c1.29-1.17,2.7-2.27,4.07-3.33c0.77-0.6,1.54-1.19,2.27-1.79c0.79-0.61,1.57-1.23,2.35-1.85c1.37-1.08,2.73-2.17,4.14-3.2
				l0.97-0.7l-26.11-35.18l-0.95,0.7c-17.49,12.9-33.96,28.02-48.98,44.95l-0.79,0.89l39.2,34.75
				c-10.87,12.37-20.65,25.77-29.04,39.88l-29.93-17.64c4.55-7.71,9.82-15.68,16.06-24.3l6.88,5.09l-1.39,1.96
				c-3.06,4.29-6.23,8.73-9.04,13.32l-0.61,0.99l14.83,9.51l0.64-1.03c5.93-9.52,12.76-18.41,19.27-26.6l0.73-0.91l-33.81-27.82
				l-0.76,0.92c-14.09,17.18-26.42,35.86-36.64,55.5l-0.55,1.06l46.43,24.2c-7.23,14.03-13.25,28.76-17.89,43.82l-33.26-10.04
				c0.87-2.9,1.87-5.81,2.84-8.62c0.6-1.74,1.2-3.49,1.76-5.2c1.18-3.27,2.47-6.5,3.76-9.73c0.51-1.28,1.02-2.56,1.52-3.85
				l7.89,3.32c-0.57,1.48-1.16,2.95-1.75,4.43c-1.67,4.18-3.39,8.5-4.77,12.9l-0.35,1.1l16.65,5.72l0.38-1.14
				c3.74-11.27,8.61-22.16,12.44-30.38l0.49-1.07l-39.41-19.06l-0.52,1.07c-9.61,19.83-17.18,40.9-22.51,62.63l-0.29,1.15
				l50.87,12.5c-3.84,15.93-6.26,32.33-7.13,48.8l-34.68-1.64c0.19-3.11,0.43-6.2,0.67-9.29l0.4-5.21l1.81-14.48l8.45,1.29
				l-1.7,13.49l-0.46,6.06l17.59,1.49l0.06-1.22c0.18-3.62,0.67-7.3,1.15-10.86c0.24-1.82,0.48-3.64,0.69-5.43
				c0.53-3.78,1.23-7.6,1.92-11.3c0.3-1.63,0.6-3.26,0.89-4.9l0.2-1.14l-42.86-8.84l-0.24,1.17c-4.45,21.44-6.67,43.7-6.59,66.16
				l0,1.19l52.35-0.19c0.08,15.44,1.62,31.29,4.57,47.18l-34.09,6.51c-0.21-1.18-0.42-2.35-0.64-3.54
				c-0.65-3.53-1.32-7.19-1.7-10.82c-0.16-1.36-0.34-2.71-0.52-4.07c-0.45-3.42-0.9-6.93-1.14-10.43l8.54-0.72l0.29,3.74l2.01,15.8
				l17.41-2.66l-0.13-1.15c-0.23-1.98-0.49-3.97-0.76-5.96c-0.45-3.4-0.92-6.92-1.19-10.36c-0.11-1.7-0.25-3.39-0.39-5.09
				c-0.3-3.71-0.61-7.54-0.61-11.31v-1.23l-42.63,1.41l-1.19,0.05l0.04,1.19c0.73,22.25,3.77,44.41,9.03,65.88l0.28,1.15l50.87-12.5
				c3.99,15.93,9.47,31.56,16.34,46.5l-31.47,14.65c-0.4-0.88-0.79-1.74-1.19-2.62c-1.59-3.49-3.23-7.09-4.59-10.75l-0.57-1.43
				c-1.58-3.98-3.21-8.08-4.57-12.21l8.08-2.77c1.31,4,2.88,7.93,4.41,11.75c0.73,1.82,1.46,3.65,2.16,5.48l0.44,1.15l16.26-6.84
				l-0.44-1.08c-3.67-9.15-7.82-19.98-10.82-30.99l-0.31-1.16l-40.99,11.71l-1.15,0.33l0.33,1.14
				c6.09,21.32,14.45,42.09,24.85,61.73l0.55,1.05l46.25-24.55c7.46,13.89,16.2,27.2,26.01,39.6l-27.14,21.66
				c-2.96-3.75-6.02-7.62-8.76-11.63l-4.55-6.41l-3.64-5.65l7.18-4.6c2.67,4.27,5.62,8.4,8.48,12.4l2.7,3.8L378.7,1743l-0.65-0.94
				c-1.03-1.49-2.09-2.97-3.15-4.44c-2.11-2.94-4.29-5.96-6.2-9.11l-4.43-6.89l-4.72-8.17l-38.05,21.68l0.59,1.03
				c10.96,19.25,23.99,37.43,38.71,54.06l0.79,0.89l39.2-34.75c10.96,12.26,23.09,23.58,36.12,33.64l-21.1,27.56
				c-0.94-0.74-1.89-1.48-2.83-2.22c-2.83-2.2-5.77-4.48-8.48-6.93l-1.88-1.63c-3.01-2.59-6.1-5.27-9-8.07l5.87-6.22
				c2.94,2.87,6.08,5.55,9.12,8.16c1.57,1.35,3.14,2.7,4.69,4.07l0.92,0.81l11.24-13.61l-0.89-0.76c-7.95-6.8-16.37-14.23-24-22.43
				l-0.82-0.88l-31.69,30.26l0.82,0.86c15.31,16.03,32.33,30.54,50.6,43.11l0.98,0.67l29.62-43.17
				c13.08,8.88,26.99,16.61,41.38,23.02l-14,31.77l-1.86-0.84c-3.75-1.68-7.62-3.42-11.3-5.41l-7.04-3.61
				c-1.51-0.77-2.99-1.63-4.46-2.49c-0.45-0.26-0.9-0.53-1.35-0.78l4.23-7.4c3.87,2.27,7.9,4.32,11.8,6.31
				c1.51,0.77,3.01,1.53,4.51,2.31l1.08,0.57l7.71-15.87l-1.04-0.53c-9.27-4.69-19.15-9.88-28.6-16.13l-1.01-0.67l-23.7,36.85
				l1,0.64c18.69,12.02,38.67,22.11,59.38,29.99l1.11,0.42l18.58-48.97c15.37,5.74,31.35,10.11,47.57,12.92l-5.81,34.24l-1.9-0.34
				c-4.08-0.71-8.3-1.46-12.39-2.49l-7.72-1.78c-1.65-0.36-3.28-0.84-4.91-1.31c-0.5-0.15-1.01-0.29-1.52-0.44l2.3-8.21
				c4.11,1.22,8.31,2.17,12.39,3.09c1.85,0.42,3.69,0.84,5.53,1.28l1.19,0.29l3.6-17.27l-1.14-0.26
				c-9.53-2.13-20.75-4.83-31.66-8.67l-1.14-0.4l-14,41.52l1.13,0.39c21.04,7.09,42.89,11.99,64.92,14.55l1.19,0.13l6.06-52
				c15.61,1.73,31.55,2.11,47.4,1.12l2.36,34.69c-3.54,0.29-7.15,0.37-10.65,0.46c-1.31,0.02-2.61,0.05-3.93,0.1
				c-3.84,0.16-7.76,0.06-11.55-0.05c-0.99-0.02-1.98-0.05-2.97-0.08l0.29-8.54l8.66,0.22c2.25-0.02,4.5-0.09,6.75-0.15l4.26-0.11
				l-0.55-17.61l-9.4,0.23c-1.82-0.01-3.65-0.06-5.47-0.11l-2.74-0.07c-1-0.05-2-0.06-3-0.08c-1.74-0.03-3.47-0.06-5.21-0.21
				l-9.4-0.72l-3.77,43.63l1.19,0.1c9.26,0.8,18.55,1.19,27.84,1.19c12.92,0,25.83-0.77,38.6-2.3l1.18-0.15l-6.25-52
				c16.35-2.03,32.54-5.56,48.15-10.56l10.73,33.05l-14,4.11c-3.26,0.94-6.63,1.7-9.9,2.44c-1.42,0.32-2.83,0.64-4.24,0.97
				l-1.77-8.36l2.32-0.53c5.15-1.18,10.47-2.39,15.62-3.97l1.12-0.34l-4.81-16.96l-1.16,0.35c-11.21,3.33-22.49,5.46-32.04,7.1
				l-1.16,0.19l6.84,43.26l1.17-0.19c21.94-3.49,43.56-9.29,64.27-17.26l1.11-0.43l-18.75-48.88c14.71-5.72,28.98-12.76,42.44-20.98
				l18.25,29.55c-2.59,1.6-5.27,3.12-7.88,4.61c-1.59,0.91-3.18,1.8-4.71,2.71c-3.26,1.74-6.57,3.42-9.87,5.1l-3.09,1.58l-3.71-7.71
				l9.26-4.73c0.94-0.48,1.87-0.95,2.82-1.47l5.27-3.04l-8.71-15.35l-1.05,0.64c-3.24,1.97-6.7,3.72-10.04,5.41
				c-1.49,0.75-2.98,1.51-4.47,2.29c-1.5,0.81-3.11,1.52-4.66,2.21c-0.92,0.41-1.85,0.81-2.73,1.23c-0.93,0.42-1.86,0.84-2.79,1.26
				c-1.56,0.72-3.13,1.43-4.71,2.08l-1.11,0.45l16.92,40.42l1.1-0.46c20.13-8.37,39.75-19.12,58.34-31.98l0.98-0.67l-29.79-43.08
				c13.48-9.41,26.17-20.1,37.72-31.82l24.86,24.27l-10.46,10.15c-2.49,2.35-5.14,4.63-7.7,6.83c-1.08,0.92-2.15,1.84-3.22,2.78
				l-5.46-6.57l2.43-2.11c3.79-3.27,7.71-6.65,11.34-10.26l0.82-0.82l-12.14-12.76l-0.86,0.84c-8.01,7.83-16.77,14.84-25.04,21.26
				l-0.93,0.71l26.22,35.06l0.95-0.71c17.73-13.31,34.15-28.5,48.79-45.16l0.78-0.89l-39.31-34.58
				c10.39-11.91,19.77-24.78,27.89-38.3l29.87,17.76c-1.53,2.6-3.2,5.17-4.82,7.67c-1.01,1.55-2.01,3.1-2.97,4.64
				c-1.91,2.88-3.93,5.7-5.95,8.52c-0.81,1.13-1.62,2.26-2.42,3.4l-6.86-5.11c0.86-1.22,1.74-2.44,2.61-3.66
				c2.67-3.73,5.44-7.59,7.88-11.6l0.6-0.99l-14.79-9.55l-0.64,1.01c-6.34,10.06-13.68,19.46-19.37,26.53l-0.74,0.91l33.71,27.93
				l0.76-0.91c14.03-16.9,26.43-35.52,36.86-55.36l0.55-1.05l-46.36-24.39c7.58-14.59,13.86-29.91,18.63-45.64l33.31,9.92
				c-0.54,1.92-1.2,3.97-2.03,6.36l-2.54,7.5c-1.1,3.24-2.4,6.48-3.65,9.62c-0.53,1.32-1.06,2.64-1.57,3.97l-7.89-3.29l1.07-2.69
				c1.89-4.75,3.83-9.67,5.4-14.65l0.35-1.11l-16.68-5.67l-0.37,1.15c-3.5,10.77-7.99,20.99-12.32,30.42l-0.49,1.06l39.49,18.92
				l0.51-1.08c9.58-20.05,17.07-41.15,22.27-62.72l0.28-1.15l-50.89-12.3c3.65-15.35,5.95-31.11,6.86-46.87l34.65,1.77l-1.12,14.49
				l-0.67,5.26c-0.38,3.07-0.77,6.16-1.2,9.23l-8.44-1.32c0.25-1.71,0.46-3.43,0.67-5.15c0.14-1.14,0.28-2.28,0.44-3.42l0.1-0.79
				c0.38-2.95,0.78-6,0.95-9.03l0.06-1.15l-17.53-1.56l-0.21,2.63c-0.06,0.88-0.12,1.77-0.22,2.63l-1.55,12.23
				c-1.03,6.31-1.96,11.46-2.9,16.2l-0.23,1.15l42.85,9.01l0.25-1.16c4.56-21.63,6.88-43.88,6.88-66.14v-1.19H868.12z"/>
		</g>
	</g>
</g>
</svg>
